<svg width="36" height="37" viewBox="0 0 36 37" fill="none" xmlns="http://www.w3.org/2000/svg">
<g clip-path="url(#clip0_1_319)">
<path d="M31.2524 24.6445L20.6505 19.0925C20.767 18.7419 20.6505 18.2744 20.301 18.0406C19.8932 17.6899 19.2524 17.7484 18.8447 18.1575C18.7282 18.3328 18.2621 18.4497 17.7379 18.3328C17.2718 18.2159 16.9806 17.8653 16.9223 17.3393C16.8641 16.5795 17.2136 16.0536 18.0874 15.7029C18.6699 15.4692 19.0777 14.8847 19.0194 14.2419V10.4432C21.233 9.97565 22.8641 7.98864 22.8641 5.59253C22.8641 2.84578 20.6505 0.625 17.9126 0.625C15.1748 0.625 12.9612 2.84578 12.9612 5.59253C12.9612 7.98864 14.6505 9.97565 16.9223 10.4432L16.9806 13.8912C15.5243 14.651 14.7087 15.9367 14.8835 17.5146C14.9417 18.099 15.1165 18.5666 15.4078 19.0341L4.74757 24.6445C3.87379 25.0536 3.29126 25.8718 3.05825 26.8068C3.05825 26.8068 3.05825 26.8068 3.05825 26.8653C3 27.099 3 27.3328 3 27.5666V33.3523C3 35.164 4.45631 36.625 6.26214 36.625H29.7379C31.5437 36.625 33 35.164 33 33.3523V27.5666C33 26.2808 32.301 25.1705 31.2524 24.6445ZM15.0583 5.59253C15.0583 3.95617 16.3398 2.67045 17.9709 2.67045C19.6019 2.67045 20.8835 3.95617 20.8835 5.59253C20.8835 7.2289 19.6019 8.51461 17.9709 8.51461C16.3398 8.51461 15.0583 7.2289 15.0583 5.59253ZM17.3301 20.3782L17.3883 20.3198C17.6796 20.3782 17.9126 20.4367 18.2039 20.4367C18.3786 20.4367 18.5534 20.4367 18.7282 20.3782L29.4466 25.9886H6.5534L17.3301 20.3782ZM29.7379 34.5795H6.20388C5.50485 34.5795 4.98058 33.9951 4.98058 33.3523V28.0925H30.9612V33.3523C30.9612 33.9951 30.3786 34.5795 29.7379 34.5795Z" fill="#52503B"/>
</g>
<defs>
<clipPath id="clip0_1_319">
<rect width="36" height="36" fill="white" transform="translate(0 0.625)"/>
</clipPath>
</defs>
</svg>
